<svg width="32" height="32" viewBox="0 0 32 32" fill="none" xmlns="http://www.w3.org/2000/svg">
<circle cx="16" cy="16" r="16" fill="#F1F2F4"/>
<path d="M8.13118 14.1172C7.87616 13.8853 8.01469 13.4662 8.35962 13.426L13.2472 12.856C13.3878 12.8396 13.5099 12.7528 13.5692 12.6265L15.6307 8.2326C15.7762 7.92251 16.2246 7.92245 16.3701 8.23254L18.4316 12.6264C18.4909 12.7527 18.6122 12.8398 18.7528 12.8562L23.6407 13.426C23.9856 13.4662 24.1237 13.8854 23.8687 14.1173L20.2556 17.4028C20.1517 17.4973 20.1054 17.6379 20.133 17.7744L21.0919 22.5204C21.1596 22.8553 20.797 23.1148 20.4939 22.948L16.1992 20.584C16.0757 20.516 15.9256 20.5164 15.802 20.5843L11.5069 22.9474C11.2038 23.1142 10.8405 22.8553 10.9082 22.5204L11.8673 17.7747C11.8949 17.6382 11.8487 17.4973 11.7448 17.4028L8.13118 14.1172Z" stroke="#A2A2A2" stroke-width="1.5" stroke-linecap="round" stroke-linejoin="round"/>
</svg>
