<svg width="17" height="17" viewBox="0 0 17 17" fill="none" xmlns="http://www.w3.org/2000/svg">
<path id="coolicon" d="M1.38144 16.5C1.13516 16.4996 0.900386 16.3957 0.734393 16.2137C0.56534 16.0332 0.481337 15.7891 0.503492 15.5428L0.71859 13.1769L10.6552 3.24108L13.7605 6.34636L3.82653 16.2813L1.46134 16.4965C1.43412 16.4991 1.4069 16.5 1.38144 16.5ZM14.3804 5.72548L11.2759 2.6202L13.1381 0.757561C13.3028 0.592658 13.5262 0.5 13.7592 0.5C13.9922 0.5 14.2157 0.592658 14.3804 0.757561L16.2425 2.6202C16.4074 2.78492 16.5 3.00844 16.5 3.24152C16.5 3.4746 16.4074 3.69812 16.2425 3.86284L14.3813 5.72461L14.3804 5.72548Z" fill="#E4E6EA"/>
</svg>
