<svg width="34" height="34" viewBox="0 0 34 34" fill="none" xmlns="http://www.w3.org/2000/svg">
<g id="star">
<path id="Vector" d="M3.62291 13.7992C3.18937 13.405 3.42487 12.6925 4.01126 12.6241L12.3202 11.6553C12.5591 11.6274 12.7667 11.4799 12.8675 11.265L16.3721 3.79544C16.6194 3.26829 17.3817 3.26818 17.6291 3.79534L21.1336 11.2648C21.2344 11.4797 21.4407 11.6276 21.6797 11.6555L29.989 12.6241C30.5754 12.6925 30.8102 13.4053 30.3767 13.7994L24.2344 19.3848C24.0577 19.5454 23.9791 19.7845 24.026 20.0166L25.6561 28.0847C25.7712 28.6541 25.1548 29.0953 24.6395 28.8117L17.3385 24.7929C17.1285 24.6773 16.8734 24.6778 16.6634 24.7934L9.3616 28.8107C8.84633 29.0942 8.2288 28.6541 8.34389 28.0847L9.9743 20.0171C10.0212 19.785 9.94273 19.5454 9.76604 19.3847L3.62291 13.7992Z" stroke="#9DA0A8" stroke-width="2" stroke-linecap="round" stroke-linejoin="round"/>
</g>
</svg>
