<svg width="22" height="21" viewBox="0 0 22 21" fill="none" xmlns="http://www.w3.org/2000/svg">
<path d="M0.180373 8.56403C-0.170281 8.23943 0.0201949 7.65262 0.494483 7.59633L7.21491 6.79842C7.40821 6.77548 7.57611 6.65397 7.65764 6.47704L10.4922 0.325638C10.6923 -0.10849 11.3088 -0.108574 11.5089 0.325555L14.3435 6.47691C14.425 6.65384 14.5918 6.77568 14.7851 6.79862L21.5059 7.59633C21.9802 7.65262 22.1701 8.23961 21.8195 8.5642L16.8514 13.1639C16.7085 13.2962 16.6449 13.4931 16.6828 13.6842L18.0013 20.3285C18.0944 20.7975 17.5959 21.1608 17.1791 20.9273L11.2739 17.6176C11.104 17.5225 10.8977 17.5229 10.7278 17.6181L4.82196 20.9264C4.4052 21.1599 3.90573 20.7974 3.99881 20.3285L5.31752 13.6846C5.35546 13.4935 5.29199 13.2962 5.14908 13.1639L0.180373 8.56403Z" fill="#D5D8DC"/>
</svg>
