<svg width="24" height="24" viewBox="0 0 24 24" fill="none" xmlns="http://www.w3.org/2000/svg">
<circle cx="8.69336" cy="9" r="5" fill="#9DA0A8"/>
<circle cx="14.6934" cy="9" r="5" fill="#C6C6C6"/>
<path d="M16.3449 21.4054C16.8977 21.2902 17.2269 20.7117 16.9522 20.2183C16.3466 19.1307 15.3926 18.1749 14.1722 17.4465C12.6004 16.5085 10.6745 16 8.69333 16C6.71213 16 4.78628 16.5085 3.21448 17.4465C1.99405 18.1749 1.04002 19.1307 0.434441 20.2183C0.159743 20.7117 0.488979 21.2902 1.04179 21.4054V21.4054C6.0886 22.4572 11.2981 22.4572 16.3449 21.4054V21.4054Z" fill="#9DA0A8"/>
<path d="M22.3449 21.4054C22.8977 21.2902 23.2269 20.7117 22.9522 20.2183C22.3466 19.1307 21.3926 18.1749 20.1722 17.4465C18.6004 16.5085 16.6745 16 14.6933 16C12.7121 16 10.7863 16.5085 9.21448 17.4465C7.99405 18.1749 7.04002 19.1307 6.43444 20.2183C6.15974 20.7117 6.48898 21.2902 7.04179 21.4054V21.4054C12.0886 22.4572 17.2981 22.4572 22.3449 21.4054V21.4054Z" fill="#C6C6C6"/>
</svg>
